<mxfile host="app.diagrams.net" agent="Mozilla/5.0 (Windows NT 10.0; Win64; x64) AppleWebKit/537.36 (KHTML, like Gecko) Chrome/139.0.0.0 Safari/537.36" version="28.1.0">
  <diagram name="Page-1" id="llio4vYwCduqVfQrdFyV">
    <mxGraphModel dx="1426" dy="777" grid="1" gridSize="10" guides="1" tooltips="1" connect="1" arrows="1" fold="1" page="1" pageScale="1" pageWidth="850" pageHeight="1100" math="0" shadow="0">
      <root>
        <mxCell id="0" />
        <mxCell id="1" parent="0" />
        <mxCell id="bi-rmyPJlIDKk1fOFVB9-3" value="" style="edgeStyle=orthogonalEdgeStyle;rounded=0;orthogonalLoop=1;jettySize=auto;html=1;exitX=0.463;exitY=1.05;exitDx=0;exitDy=0;exitPerimeter=0;entryX=0.5;entryY=0;entryDx=0;entryDy=0;" edge="1" parent="1" source="bi-rmyPJlIDKk1fOFVB9-2" target="bi-rmyPJlIDKk1fOFVB9-1">
          <mxGeometry relative="1" as="geometry">
            <mxPoint x="470" y="130" as="targetPoint" />
            <Array as="points">
              <mxPoint x="440" y="83" />
            </Array>
          </mxGeometry>
        </mxCell>
        <mxCell id="bi-rmyPJlIDKk1fOFVB9-5" value="" style="edgeStyle=orthogonalEdgeStyle;rounded=0;orthogonalLoop=1;jettySize=auto;html=1;exitX=-0.025;exitY=0.367;exitDx=0;exitDy=0;exitPerimeter=0;entryX=1.013;entryY=0.383;entryDx=0;entryDy=0;entryPerimeter=0;" edge="1" parent="1" source="bi-rmyPJlIDKk1fOFVB9-4" target="bi-rmyPJlIDKk1fOFVB9-1">
          <mxGeometry relative="1" as="geometry">
            <mxPoint x="610" y="180" as="sourcePoint" />
            <mxPoint x="570" y="182" as="targetPoint" />
          </mxGeometry>
        </mxCell>
        <mxCell id="bi-rmyPJlIDKk1fOFVB9-7" value="" style="edgeStyle=orthogonalEdgeStyle;rounded=0;orthogonalLoop=1;jettySize=auto;html=1;" edge="1" parent="1" source="bi-rmyPJlIDKk1fOFVB9-1" target="bi-rmyPJlIDKk1fOFVB9-6">
          <mxGeometry relative="1" as="geometry" />
        </mxCell>
        <mxCell id="bi-rmyPJlIDKk1fOFVB9-9" value="" style="edgeStyle=orthogonalEdgeStyle;rounded=0;orthogonalLoop=1;jettySize=auto;html=1;" edge="1" parent="1" source="bi-rmyPJlIDKk1fOFVB9-1" target="bi-rmyPJlIDKk1fOFVB9-8">
          <mxGeometry relative="1" as="geometry" />
        </mxCell>
        <mxCell id="bi-rmyPJlIDKk1fOFVB9-1" value="Controller" style="rounded=0;whiteSpace=wrap;html=1;" vertex="1" parent="1">
          <mxGeometry x="320" y="160" width="240" height="60" as="geometry" />
        </mxCell>
        <mxCell id="bi-rmyPJlIDKk1fOFVB9-2" value="Real Time Clock" style="rounded=0;whiteSpace=wrap;html=1;" vertex="1" parent="1">
          <mxGeometry x="350" y="30" width="180" height="60" as="geometry" />
        </mxCell>
        <mxCell id="bi-rmyPJlIDKk1fOFVB9-4" value="Weighing Scale" style="whiteSpace=wrap;html=1;rounded=0;" vertex="1" parent="1">
          <mxGeometry x="640" y="160" width="120" height="60" as="geometry" />
        </mxCell>
        <mxCell id="bi-rmyPJlIDKk1fOFVB9-6" value="Dispenser" style="whiteSpace=wrap;html=1;rounded=0;" vertex="1" parent="1">
          <mxGeometry x="100" y="160" width="120" height="60" as="geometry" />
        </mxCell>
        <mxCell id="bi-rmyPJlIDKk1fOFVB9-8" value="Alert Module" style="whiteSpace=wrap;html=1;rounded=0;" vertex="1" parent="1">
          <mxGeometry x="380" y="300" width="120" height="60" as="geometry" />
        </mxCell>
        <mxCell id="bi-rmyPJlIDKk1fOFVB9-10" value="" style="endArrow=classic;html=1;rounded=0;entryX=0.167;entryY=1;entryDx=0;entryDy=0;entryPerimeter=0;" edge="1" parent="1" target="bi-rmyPJlIDKk1fOFVB9-1">
          <mxGeometry width="50" height="50" relative="1" as="geometry">
            <mxPoint x="210" y="360" as="sourcePoint" />
            <mxPoint x="320" y="290" as="targetPoint" />
          </mxGeometry>
        </mxCell>
        <mxCell id="bi-rmyPJlIDKk1fOFVB9-13" value="Bin Level Sensor" style="rounded=0;whiteSpace=wrap;html=1;" vertex="1" parent="1">
          <mxGeometry x="180" y="300" width="120" height="60" as="geometry" />
        </mxCell>
        <mxCell id="bi-rmyPJlIDKk1fOFVB9-16" value="" style="endArrow=classic;html=1;rounded=0;exitX=0.442;exitY=-0.067;exitDx=0;exitDy=0;exitPerimeter=0;entryX=0.5;entryY=1;entryDx=0;entryDy=0;" edge="1" parent="1" source="bi-rmyPJlIDKk1fOFVB9-6" target="bi-rmyPJlIDKk1fOFVB9-17">
          <mxGeometry width="50" height="50" relative="1" as="geometry">
            <mxPoint x="170" y="90" as="sourcePoint" />
            <mxPoint x="130" y="120" as="targetPoint" />
          </mxGeometry>
        </mxCell>
        <mxCell id="bi-rmyPJlIDKk1fOFVB9-17" value="Dispensing Mechanism" style="rounded=0;whiteSpace=wrap;html=1;" vertex="1" parent="1">
          <mxGeometry x="80" y="30" width="120" height="60" as="geometry" />
        </mxCell>
      </root>
    </mxGraphModel>
  </diagram>
</mxfile>
